<svg width="445" height="309" viewBox="0 0 445 309" fill="none" xmlns="http://www.w3.org/2000/svg">
<rect y="229.161" width="237.605" height="107.27" rx="53.6348" transform="rotate(-45 0 229.161)" fill="#FD8B09"/>
<rect x="190.86" y="189.152" width="251.403" height="107.27" rx="53.6348" transform="rotate(-45 190.86 189.152)" fill="#3EBFE8"/>
<path d="M307.778 82.2435C297.857 70.9405 285.704 61.813 272.083 55.4352C258.462 49.0574 243.669 45.5674 228.634 45.1846C213.6 44.8018 198.648 47.5346 184.721 53.2111C170.793 58.8876 158.191 67.3848 147.707 78.1684C137.224 88.9519 129.085 101.788 123.803 115.87C118.521 129.952 116.211 144.975 117.017 159.993C117.823 175.011 121.729 189.7 128.488 203.135C135.247 216.571 144.713 228.462 156.292 238.061L225.86 154.149L307.778 82.2435Z" fill="#F2214A"/>
<path d="M148.935 231.373C169.377 251.815 197.101 263.298 226.01 263.298C254.918 263.298 282.643 251.815 303.085 231.373C323.526 210.932 335.01 183.207 335.01 154.298C335.01 125.39 323.526 97.6653 303.085 77.2238L226.01 154.298L148.935 231.373Z" fill="#2374E4"/>
</svg>
